<svg width="57" height="37" viewBox="0 0 57 37" fill="none" xmlns="http://www.w3.org/2000/svg">
<path fill-rule="evenodd" clip-rule="evenodd" d="M1.47621 11.1714C0.00838745 14.4782 -0.375662 18.1168 0.37268 21.6273C1.12093 25.1377 2.96797 28.3622 5.68009 30.8931C8.3922 33.4239 11.8478 35.1475 15.6095 35.8458C19.3716 36.544 23.2708 36.1856 26.8145 34.8159C30.358 33.4463 33.3868 31.1266 35.5177 28.1508C35.5745 28.0714 35.6306 27.9916 35.686 27.9115C35.7251 27.855 35.764 27.7981 35.8025 27.7411V36.1935H37.2942C41.1298 36.1935 44.8793 35.1321 48.0684 33.1435C51.2576 31.1552 53.7432 28.3288 55.211 25.022C56.6789 21.7153 57.0629 18.0767 56.3145 14.5662C55.5662 11.0558 53.7194 7.83126 51.0072 5.30043C48.295 2.76951 44.8395 1.04601 41.0777 0.347769C37.3156 -0.350553 33.4164 0.0078275 29.8728 1.37754C26.3292 2.74725 23.3004 5.06678 21.1696 8.04273C21.0726 8.17817 20.9777 8.31479 20.8847 8.45235V1.07843e-05H19.393C15.5574 1.07843e-05 11.808 1.06139 8.61884 3.04989C5.4297 5.03831 2.94404 7.86465 1.47621 11.1714ZM17.9013 18.0967V2.84751C15.1823 3.07912 12.5597 3.94117 10.2764 5.36474C7.57786 7.0473 5.47468 9.43887 4.23267 12.2368C2.99065 15.0349 2.66569 18.1137 3.29886 21.0841C3.93202 24.0544 5.49491 26.7829 7.78973 28.9244C10.0847 31.0659 13.0086 32.5242 16.1917 33.1151C19.3748 33.7059 22.6742 33.4027 25.6727 32.2437C28.5507 31.1313 31.0273 29.2784 32.8161 26.9047C31.4604 27.5052 29.944 27.8412 28.3436 27.8412C22.5765 27.8412 17.9013 23.4783 17.9013 18.0967ZM38.786 33.3459V18.0967C38.786 12.7151 34.1107 8.35234 28.3436 8.35234C26.7432 8.35234 25.2268 8.68829 23.8711 9.28882C25.6599 6.91501 28.1366 5.0621 31.0146 3.94974C34.013 2.79075 37.3124 2.48751 40.4955 3.07836C43.6786 3.66919 46.6026 5.12761 48.8976 7.26904C51.1924 9.41057 52.7553 12.139 53.3883 15.1094C54.0215 18.0798 53.6966 21.1586 52.4545 23.9566C51.2127 26.7546 49.1094 29.1462 46.4108 30.8287C44.1276 32.2523 41.505 33.1143 38.786 33.3459ZM28.1944 25.0557C24.1934 24.9824 20.9648 21.9694 20.8863 18.236H23.7082C25.9343 18.7094 27.6868 20.3446 28.1944 22.422V25.0557ZM28.4927 25.0557C32.4937 24.9824 35.7225 21.9694 35.801 18.236H32.9791C30.7527 18.7094 29.0002 20.3449 28.4927 22.4225V25.0557ZM35.801 17.9575C35.7225 14.224 32.4937 11.2111 28.4927 11.1378V13.771C29.0002 15.8485 30.7525 17.4839 32.9786 17.9575H35.801ZM28.1944 11.1378C24.1935 11.2111 20.9648 14.224 20.8863 17.9575H23.7086C25.9346 17.4839 27.6869 15.8487 28.1944 13.7715V11.1378Z" fill="#621C74"/>
</svg>
