<svg width="12" height="12" viewBox="0 0 12 12" fill="none" xmlns="http://www.w3.org/2000/svg">
<g clip-path="url(#clip0_136_8448)">
<path d="M9.15035 2.99921C8.95535 2.80162 8.64035 2.80162 8.44535 2.99921L6.00035 5.47163L3.55535 2.99414C3.36035 2.79655 3.04535 2.79655 2.85035 2.99414C2.65535 3.19173 2.65535 3.51092 2.85035 3.70851L5.29535 6.186L2.85035 8.66349C2.65535 8.86108 2.65535 9.18027 2.85035 9.37786C3.04535 9.57545 3.36035 9.57545 3.55535 9.37786L6.00035 6.90037L8.44535 9.37786C8.64035 9.57545 8.95535 9.57545 9.15035 9.37786C9.34535 9.18027 9.34535 8.86108 9.15035 8.66349L6.70535 6.186L9.15035 3.70851C9.34035 3.51598 9.34035 3.19173 9.15035 2.99921Z" fill="white"/>
</g>
<defs>
<clipPath id="clip0_136_8448">
<rect width="12" height="12" fill="white"/>
</clipPath>
</defs>
</svg>
