<svg width="25" height="25" viewBox="0 0 25 25" fill="none" xmlns="http://www.w3.org/2000/svg">
<path d="M16.25 21.25C16.25 22.9687 14.8437 24.375 13.125 24.375C12.2708 24.375 11.4792 24.0208 10.9167 23.4583C10.3542 22.8958 10 22.1042 10 21.25" stroke="white" stroke-miterlimit="10"/>
<path d="M13.1539 3.03125C9.28526 3.03125 6.14127 5.83333 6.14127 9.28125V12.2917C6.14127 12.9271 5.83739 13.8958 5.47507 14.4375L4.13098 16.4271C3.30115 17.6563 3.87385 19.0208 5.39325 19.4792C10.4307 20.9792 15.8654 20.9792 20.9028 19.4792C22.3171 19.0625 22.9365 17.5729 22.1651 16.4271L20.821 14.4375C20.4704 13.8958 20.1665 12.9271 20.1665 12.2917V9.28125C20.1665 5.84375 17.0108 3.03125 13.1539 3.03125Z" stroke="white" stroke-miterlimit="10" stroke-linecap="round"/>
<path d="M15 3.12516C14.6858 3.05076 14.3615 2.99289 14.027 2.95982C13.0541 2.86061 12.1216 2.91848 11.25 3.12516C11.5439 2.51339 12.2736 2.0835 13.125 2.0835C13.9764 2.0835 14.7061 2.51339 15 3.12516Z" stroke="white" stroke-miterlimit="10" stroke-linecap="round" stroke-linejoin="round"/>
</svg>
